# xmcd
#
# Track frame offsets: 
#        150
#        13326
#        26668
#        39936
#        52967
#        66688
#        79493
#        93179
#        107851
#        122771
#        135756
#        148481
#        169692
#        193338
#
# Disc length: 2840 seconds
#
# Revision: 2
# Processed by: cddbd v1.5.2PL0 Copyright (c) Steve Scherf et al.
# Submitted via: ExactAudioCopy v0.99pb4
#
DISCID=cb0b160e
DTITLE=Clayton-Young-Jones - Jazz In History IV  [Disc 1]
DYEAR=1900
DGENRE=Jazz
TTITLE0=Way Down Yonder in New Orleans
TTITLE1=Countless Blues
TTITLE2=Them There Eyes
TTITLE3=Pagin' the Devil
TTITLE4=I Know That You Know
TTITLE5=Good Morning Blues
TTITLE6=Laughing at Life
TTITLE7=I Got Rhythm
TTITLE8=Jo-Jo
TTITLE9=Three Little Words
TTITLE10=Four O'Clock Drag
TTITLE11=After Theatre Jump
TTITLE12=Six Cats and a Price
TTITLE13=Lester Leaps Again
EXTD=
EXTT0=
EXTT1=
EXTT2=
EXTT3=
EXTT4=
EXTT5=
EXTT6=
EXTT7=
EXTT8=
EXTT9=
EXTT10=
EXTT11=
EXTT12=
EXTT13=
PLAYORDER=
